<?xml version="1.0" standalone="no"?>
<!DOCTYPE svg PUBLIC "-//W3C//DTD SVG 20010904//EN"
 "http://www.w3.org/TR/2001/REC-SVG-20010904/DTD/svg10.dtd">
<svg version="1.0" xmlns="http://www.w3.org/2000/svg"
 width="474.000000pt" height="278.000000pt" viewBox="0 0 474.000000 278.000000"
 preserveAspectRatio="xMidYMid meet">

<g transform="translate(0.000000,278.000000) scale(0.100000,-0.100000)"
fill="#000000" stroke="none">
<path d="M1180 2771 c0 -5 -15 -13 -32 -16 -84 -19 -208 -98 -325 -207 -39
-37 -82 -69 -95 -72 -12 -3 -48 -10 -78 -16 -71 -13 -145 -56 -213 -123 -58
-56 -135 -168 -168 -242 -22 -50 -28 -52 -109 -30 -30 8 -56 15 -57 15 -1 0
-10 -12 -21 -27 l-20 -28 51 -3 c28 -2 55 -8 59 -15 6 -9 10 -8 18 3 6 10 10
11 10 3 0 -7 6 -10 13 -7 10 3 6 -23 -12 -98 -14 -57 -30 -106 -35 -109 -5 -4
-23 -3 -40 3 -17 5 -52 11 -79 14 l-47 4 0 -31 c0 -43 28 -64 105 -80 l65 -13
0 -35 c0 -42 29 -110 59 -140 23 -23 43 -27 40 -8 -1 6 0 37 1 67 l2 55 8 -47
c5 -27 18 -64 30 -83 24 -39 87 -92 97 -81 3 3 6 45 6 94 l-1 87 9 -62 c23
-155 120 -263 237 -263 56 0 82 23 82 71 0 21 3 39 8 39 4 0 7 35 8 78 1 104
69 444 92 462 4 3 7 11 8 18 3 37 5 43 12 39 4 -3 8 9 8 26 1 17 6 33 12 35 6
2 8 11 5 20 -5 14 -3 14 16 -2 20 -18 23 -18 37 -4 13 13 14 20 5 34 -11 17
-11 16 -5 -5 4 -16 3 -21 -5 -17 -6 4 -11 1 -11 -6 0 -9 -5 -8 -16 4 -15 14
-11 26 41 134 32 66 64 128 72 139 14 19 15 18 11 -12 -4 -32 1 -37 29 -34 6
1 19 -9 28 -21 l17 -23 -5 23 c-3 13 -3 21 1 18 3 -4 11 3 18 15 7 14 14 18
18 10 4 -6 2 -11 -4 -11 -6 0 -9 -4 -6 -9 8 -13 -49 -80 -61 -73 -6 4 -14 19
-18 34 -4 15 -12 26 -19 25 -6 -1 -10 9 -9 23 2 21 1 22 -7 8 -11 -18 1 -61
15 -56 6 2 11 -6 14 -17 3 -17 1 -18 -14 -5 -14 12 -18 12 -26 -1 -8 -10 -8
-8 -4 10 8 27 -9 22 -24 -7 -8 -15 -5 -18 15 -20 13 -1 24 3 24 9 0 6 9 1 20
-12 15 -19 19 -20 14 -5 -6 16 -4 17 14 7 18 -10 20 -15 10 -36 -6 -13 -16
-22 -21 -18 -6 4 -8 0 -4 -10 3 -9 0 -22 -7 -30 -7 -7 -20 -35 -29 -62 -8 -28
-29 -88 -46 -135 -17 -47 -31 -93 -31 -103 0 -11 -4 -15 -12 -11 -7 4 -8 3 -4
-4 10 -17 -14 -129 -30 -143 -8 -6 -14 -17 -14 -23 0 -6 5 -4 10 4 11 16 8
-17 -12 -135 -5 -33 -11 -126 -11 -207 -1 -80 -5 -149 -8 -152 -5 -6 -14 221
-11 302 0 23 -3 42 -7 42 -11 0 -21 -77 -21 -165 0 -80 -11 -95 -49 -69 -21
15 -31 41 -11 29 7 -4 9 2 4 19 -4 16 -2 26 5 26 6 0 8 -7 5 -15 -4 -8 -1 -15
6 -15 10 0 10 -3 0 -15 -7 -9 -10 -19 -6 -22 11 -11 26 20 20 39 -2 9 0 19 6
23 5 3 10 14 10 23 0 13 -2 14 -9 4 -12 -20 -22 121 -11 160 9 29 6 48 -4 37
-11 -11 -25 -134 -16 -137 6 -2 10 -15 10 -28 0 -14 -4 -23 -8 -20 -12 7 -29
-75 -31 -144 -2 -78 25 -269 50 -354 42 -142 115 -248 205 -301 37 -22 58 -27
112 -27 73 0 169 30 164 51 -1 7 2 10 8 6 31 -19 263 216 244 246 -4 7 -3 9 3
6 32 -20 248 449 230 497 -3 8 1 24 10 37 l15 24 -21 -24 c-12 -12 -18 -27
-15 -32 3 -5 -2 -6 -10 -3 -16 6 -17 27 -2 54 4 8 -5 2 -19 -15 -27 -30 -27
-30 -21 -5 l5 25 -17 -23 c-23 -30 -35 -17 -15 17 15 24 14 24 -11 -4 -25 -27
-27 -28 -23 -7 3 12 1 22 -4 22 -5 0 -9 -7 -9 -15 0 -8 -4 -15 -10 -15 -5 0
-10 5 -10 10 0 19 -15 10 -27 -17 -20 -45 -102 -132 -144 -153 -127 -65 -232
43 -246 254 -25 392 298 693 425 396 23 -54 40 -148 21 -115 -19 33 -72 86
-101 101 -94 49 -212 -36 -259 -189 -31 -98 -24 -224 14 -290 29 -49 54 -70
97 -82 21 -6 19 -3 -10 17 -43 29 -78 90 -86 150 -6 45 -6 46 20 41 18 -4 28
-13 32 -32 18 -80 58 -151 87 -151 6 0 1 10 -11 23 -29 30 -52 89 -52 131 0
30 3 35 27 38 25 3 27 7 30 53 2 33 13 65 31 94 29 47 52 63 52 37 0 -9 4 -16
9 -16 5 0 7 12 5 27 -6 34 4 25 27 -25 l17 -37 -4 45 -4 45 12 -32 c7 -18 19
-38 25 -44 10 -10 11 -6 3 22 -6 18 -10 41 -9 49 0 8 6 -3 12 -24 15 -47 38
-61 31 -19 l-4 28 14 -25 c8 -14 12 -28 10 -32 -2 -3 0 -9 6 -13 6 -4 10 6 10
22 l1 28 20 -35 20 -35 -5 35 c-5 34 -5 34 6 8 16 -38 40 -47 28 -10 -10 27
-10 27 6 5 21 -29 33 -29 27 0 -2 12 5 4 16 -18 l21 -40 -3 33 c-2 17 -2 32
-1 32 2 0 11 -15 20 -32 11 -22 19 -28 22 -19 3 10 10 8 24 -10 11 -13 17 -18
13 -11 -10 18 16 14 32 -5 8 -10 12 -12 8 -6 -8 17 -15 53 -10 53 3 0 13 -17
24 -37 l20 -38 -4 35 c-3 19 -2 28 1 20 4 -8 16 -23 27 -35 l19 -20 -12 23
c-11 22 -10 23 10 17 19 -6 21 -4 16 17 -4 12 3 4 15 -19 12 -24 25 -43 31
-43 5 0 6 5 2 11 -4 8 1 9 16 4 20 -6 21 -5 11 14 -7 12 -8 21 -2 21 5 0 12
-11 15 -25 4 -14 11 -25 17 -25 6 0 7 -5 3 -12 -4 -6 -3 -8 4 -4 8 4 7 17 -4
41 -20 48 -9 44 16 -5 11 -22 22 -40 25 -40 5 0 -2 37 -11 52 -4 6 -3 8 3 5 6
-4 16 -20 23 -37 7 -16 16 -27 21 -24 5 3 7 10 4 15 -4 5 -1 9 6 9 7 0 9 -8 6
-21 -3 -12 -3 -18 0 -15 4 3 12 1 19 -5 11 -9 11 -4 4 23 -9 30 -8 31 5 14 8
-11 15 -24 15 -29 0 -5 6 -7 13 -4 6 2 21 -3 31 -12 18 -15 18 -15 7 7 -7 13
-8 22 -2 22 6 0 17 -12 25 -27 20 -37 20 -11 1 27 -9 17 -13 30 -10 30 2 0 14
-18 25 -40 11 -22 25 -40 31 -40 6 0 6 7 -1 20 -16 30 3 24 23 -7 l18 -28 -5
25 c-5 24 -4 24 9 6 8 -11 15 -24 15 -29 0 -4 5 -5 10 -2 6 4 7 12 3 18 -3 7
3 4 15 -6 20 -19 21 -18 16 5 -5 22 -5 22 10 4 8 -10 19 -15 25 -12 5 3 17 -2
27 -11 16 -16 16 -16 10 5 -11 34 1 26 23 -15 14 -26 20 -32 21 -19 0 17 2 18
18 4 9 -9 23 -13 30 -11 6 3 12 0 12 -7 0 -8 6 -8 21 1 21 11 22 10 15 -22 -4
-19 -15 -78 -25 -132 -10 -58 -21 -95 -26 -90 -5 4 -4 1 2 -7 6 -8 13 -58 15
-110 9 -181 96 -300 217 -300 39 0 40 -1 46 -37 3 -21 17 -83 31 -138 69 -280
226 -456 422 -471 l67 -5 -62 31 c-109 54 -190 164 -243 327 -44 138 -60 254
-59 438 l1 160 12 -80 c21 -132 76 -212 155 -222 61 -8 67 2 76 120 4 56 13
140 21 187 14 90 17 135 4 85 -14 -56 -11 12 4 100 47 265 129 507 192 566 22
21 24 21 24 4 0 -10 -26 -75 -59 -144 -64 -139 -100 -241 -131 -374 -32 -140
-22 -135 14 8 113 437 305 710 488 693 46 -5 48 -4 33 12 -22 24 -123 76 -164
85 -149 32 -304 -23 -450 -160 -54 -49 -57 -48 -17 9 11 16 15 26 8 22 -20
-12 -118 -167 -175 -276 -124 -236 -182 -458 -200 -765 -2 -27 -4 -3 -5 55 -5
319 116 657 345 961 41 54 77 99 81 99 4 0 39 30 77 68 92 87 169 126 252 127
65 0 64 4 -4 35 -275 123 -619 -90 -830 -515 -28 -55 -63 -136 -78 -180 -16
-44 -31 -83 -35 -88 -3 -4 -59 4 -124 18 -64 14 -121 23 -126 20 -4 -3 -10 0
-12 5 -2 6 -24 12 -51 13 -26 1 -47 5 -47 8 0 5 -48 17 -95 24 -5 1 -45 9 -87
19 -42 10 -82 14 -89 10 -7 -4 -9 -3 -6 3 4 6 -11 13 -36 17 -66 11 -82 14
-82 16 0 2 -36 9 -68 13 -15 2 -32 8 -37 13 -5 5 -5 54 2 119 11 116 5 316
-13 425 -14 91 -39 171 -50 165 -5 -3 -6 1 -3 10 8 19 -38 115 -83 174 -18 24
-33 40 -33 36 0 -4 -8 2 -17 13 -26 31 -173 109 -223 119 -17 3 -30 9 -30 14
0 5 -49 9 -110 9 -60 0 -110 -4 -110 -9z m217 -97 c-3 -3 -12 -4 -19 -1 -8 3
-5 6 6 6 11 1 17 -2 13 -5z m-116 -47 c-6 -8 -7 -18 -3 -22 4 -5 1 -5 -6 -1
-10 6 -10 11 -1 22 6 8 14 14 16 14 3 0 0 -6 -6 -13z m164 -57 c-3 -5 -12 -10
-18 -10 -7 0 -6 4 3 10 19 12 23 12 15 0z m-235 -3 c0 -2 -10 -12 -22 -23
l-23 -19 19 23 c18 21 26 27 26 19z m-100 -45 c0 -4 -32 -61 -71 -127 -95
-159 -141 -259 -194 -418 -53 -160 -59 -146 -9 25 66 227 154 418 226 490 38
38 48 44 48 30z m240 3 c0 -2 -10 -10 -22 -16 -21 -11 -22 -11 -9 4 13 16 31
23 31 12z m-199 -29 c-7 -8 -10 -19 -7 -24 3 -6 -2 -9 -12 -8 -13 1 -16 -6
-14 -27 2 -17 -3 -29 -13 -33 -8 -3 -13 -9 -11 -13 3 -4 -6 -7 -19 -7 -14 0
-21 4 -18 11 15 25 98 124 102 120 2 -3 -2 -11 -8 -19z m29 -1 c-7 -9 -10 -19
-6 -22 4 -4 11 -1 16 7 6 9 10 10 10 3 0 -17 -20 -27 -32 -15 -6 6 -5 17 3 30
7 12 15 19 18 17 2 -3 -2 -11 -9 -20z m494 -21 c3 -8 2 -12 -4 -9 -6 3 -10 10
-10 16 0 14 7 11 14 -7z m-444 -48 c-7 -7 -13 -7 -20 0 -6 6 -3 10 10 10 13 0
16 -4 10 -10z m-51 -67 c-14 -27 -27 -31 -38 -12 -7 13 -10 14 -11 4 0 -8 -2
-12 -5 -9 -13 13 8 34 35 34 24 0 27 -2 19 -17z m-451 -147 c5 -54 -134 -573
-182 -678 -27 -59 -51 -69 -66 -28 -13 34 -13 205 1 280 26 146 108 344 176
423 42 49 67 50 71 3z m-232 -136 c-6 -56 -105 -421 -130 -480 -8 -20 -20 -36
-25 -36 -42 0 -40 191 4 330 33 104 65 168 106 215 40 45 53 37 45 -29z m-136
19 c0 -32 -84 -358 -111 -430 -33 -89 -49 -70 -49 58 0 123 47 279 110 368 26
36 50 38 50 4z m2954 -291 c-8 -20 -26 -54 -40 -75 -48 -76 -88 -165 -120
-264 -44 -136 -43 -95 2 52 42 138 95 257 131 295 36 38 45 35 27 -8z m-1904
7 c0 -11 -20 -43 -45 -72 -25 -29 -54 -76 -64 -103 -23 -60 -26 -52 -7 19 21
81 77 175 103 175 7 0 13 -9 13 -19z m70 -35 c0 -7 -18 -36 -40 -64 -22 -28
-47 -68 -55 -89 -10 -28 -14 -32 -14 -16 -1 33 33 119 64 159 25 33 45 37 45
10z m1453 -57 c-1 -40 -27 -160 -67 -319 -68 -267 -96 -358 -122 -398 -15 -22
-17 -23 -32 -8 -25 25 -29 201 -7 324 31 171 112 373 180 446 38 41 50 29 48
-45z m-1096 -61 c-3 -8 -6 -5 -6 6 -1 11 2 17 5 13 3 -3 4 -12 1 -19z m38 -8
c-3 -4 0 -11 5 -13 6 -3 5 -4 -1 -3 -7 1 -13 10 -15 19 -1 9 2 15 7 11 5 -3 7
-9 4 -14z m1429 -35 c10 -27 -75 -427 -125 -592 -30 -97 -52 -95 -65 6 -19
150 58 459 142 568 27 36 39 41 48 18z m-1024 -59 c0 -3 -4 -8 -10 -11 -5 -3
-10 -1 -10 4 0 6 5 11 10 11 6 0 10 -2 10 -4z m342 -76 c10 -10 14 -22 9 -24
-4 -3 -13 6 -19 19 -14 30 -12 31 10 5z m32 4 c3 -8 2 -12 -4 -9 -6 3 -10 10
-10 16 0 14 7 11 14 -7z m36 -9 c7 -9 8 -15 2 -15 -5 0 -12 7 -16 15 -3 8 -4
15 -2 15 2 0 9 -7 16 -15z m-1853 -102 c-3 -10 -5 -2 -5 17 0 19 2 27 5 18 2
-10 2 -26 0 -35z m0 -95 c-2 -13 -4 -3 -4 22 0 25 2 35 4 23 2 -13 2 -33 0
-45z m-80 -55 c-3 -10 -5 -4 -5 12 0 17 2 24 5 18 2 -7 2 -21 0 -30z m15 -45
c-8 -8 -9 -4 -5 13 4 13 8 18 11 10 2 -7 -1 -18 -6 -23z m65 10 c-3 -8 -6 -5
-6 6 -1 11 2 17 5 13 3 -3 4 -12 1 -19z m-50 -110 c-3 -8 -6 -5 -6 6 -1 11 2
17 5 13 3 -3 4 -12 1 -19z"/>
<path d="M1085 2420 c-10 -11 -16 -22 -13 -25 3 -3 13 4 23 15 10 11 16 22 13
25 -3 3 -13 -4 -23 -15z"/>
<path d="M1150 2360 c0 -5 5 -10 10 -10 6 0 10 5 10 10 0 6 -4 10 -10 10 -5 0
-10 -4 -10 -10z"/>
<path d="M1060 2283 c0 -5 8 -17 17 -28 14 -18 15 -18 9 -2 -3 10 -6 23 -6 28
0 5 -4 9 -10 9 -5 0 -10 -3 -10 -7z"/>
<path d="M925 2118 l-16 -33 20 25 c20 24 26 40 16 40 -2 0 -12 -15 -20 -32z"/>
<path d="M966 2125 c4 -8 8 -15 10 -15 2 0 4 7 4 15 0 8 -4 15 -10 15 -5 0 -7
-7 -4 -15z"/>
<path d="M993 2092 c-7 -27 -7 -39 1 -39 6 0 11 10 12 21 0 12 4 29 8 39 5 10
4 17 -2 17 -5 0 -14 -17 -19 -38z"/>
<path d="M950 2041 c0 -6 5 -13 10 -16 6 -3 10 1 10 9 0 9 -4 16 -10 16 -5 0
-10 -4 -10 -9z"/>
<path d="M900 2025 c-8 -9 -8 -15 -2 -15 12 0 26 19 19 26 -2 2 -10 -2 -17
-11z"/>
<path d="M930 1995 c0 -8 5 -15 10 -15 6 0 10 7 10 15 0 8 -4 15 -10 15 -5 0
-10 -7 -10 -15z"/>
<path d="M3883 1926 c-220 -72 -407 -360 -490 -756 -28 -131 -25 -455 5 -565
61 -225 183 -357 325 -354 l52 1 -44 9 c-159 31 -279 228 -310 512 -14 121
-14 234 -1 242 6 4 10 -6 10 -23 0 -41 27 -112 53 -141 33 -35 81 -53 112 -41
22 9 25 15 25 62 0 71 34 294 59 395 29 112 77 245 117 326 19 37 32 72 29 78
-4 5 -1 8 6 7 6 -2 14 3 17 11 3 9 0 11 -9 6 -8 -5 -11 -4 -6 1 5 5 14 9 20 9
7 0 12 8 12 17 0 10 9 25 20 35 19 18 19 18 0 -7 -11 -14 0 -7 23 15 43 40 56
59 25 34 -17 -13 -17 -12 -4 4 41 53 169 76 221 40 24 -15 23 -14 -3 14 -61
66 -179 97 -264 69z m-249 -258 c-4 -13 -33 -72 -65 -133 -50 -96 -74 -159
-118 -315 -10 -33 -10 -33 -5 10 17 122 114 390 161 442 22 25 36 23 27 -4z
m128 -125 c-43 -85 -107 -314 -136 -488 -2 -16 -3 0 -1 36 5 77 43 234 84 346
33 90 63 154 68 149 3 -2 -4 -21 -15 -43z m-155 -85 c-3 -35 -23 -139 -46
-233 -52 -218 -58 -237 -75 -260 -14 -19 -15 -19 -26 10 -29 73 10 314 71 445
55 117 84 132 76 38z"/>
<path d="M891 1884 c0 -11 3 -14 6 -6 3 7 2 16 -1 19 -3 4 -6 -2 -5 -13z"/>
<path d="M920 1885 c0 -8 2 -15 4 -15 2 0 6 7 10 15 3 8 1 15 -4 15 -6 0 -10
-7 -10 -15z"/>
<path d="M856 1855 c-3 -9 -6 -22 -5 -28 0 -7 5 -1 10 12 5 13 8 26 5 28 -2 2
-6 -3 -10 -12z"/>
<path d="M832 1805 c0 -16 2 -22 5 -12 2 9 2 23 0 30 -3 6 -5 -1 -5 -18z"/>
<path d="M870 1821 c0 -5 5 -13 10 -16 6 -3 10 -2 10 4 0 5 -4 13 -10 16 -5 3
-10 2 -10 -4z"/>
<path d="M851 1800 c1 -8 5 -26 9 -40 l8 -25 1 25 c0 14 -4 32 -9 40 -9 13
-10 13 -9 0z"/>
<path d="M4041 1786 c-142 -51 -282 -322 -342 -666 -26 -146 -29 -390 -6 -498
33 -150 95 -243 173 -258 106 -20 244 138 329 379 15 42 31 77 36 77 4 0 88
-18 186 -40 98 -22 182 -40 187 -40 5 0 0 10 -12 23 -12 13 -24 37 -28 53 l-6
31 -191 42 c-285 62 -289 63 -329 73 -36 8 -38 11 -38 48 0 43 29 129 51 152
9 11 22 13 44 7 33 -8 196 -46 233 -54 12 -3 32 -7 45 -10 12 -3 56 -12 97
-21 41 -8 82 -18 90 -21 27 -10 44 -8 74 12 l29 19 -184 41 -183 40 -2 140
c-3 259 -61 429 -161 471 -38 16 -47 16 -92 0z m-40 -564 c-11 -22 -30 -76
-42 -119 -23 -86 -36 -110 -24 -48 14 77 71 223 83 211 2 -2 -6 -22 -17 -44z
m-97 -86 c-3 -15 -8 -25 -11 -23 -2 3 -1 17 3 31 3 15 8 25 11 23 2 -3 1 -17
-3 -31z m-27 -288 c-3 -7 -5 -2 -5 12 0 14 2 19 5 13 2 -7 2 -19 0 -25z m51
-103 c16 -19 16 -19 -1 -6 -21 16 -47 63 -47 83 1 7 8 -3 16 -22 8 -19 23 -43
32 -55z"/>
<path d="M891 1774 c0 -11 3 -14 6 -6 3 7 2 16 -1 19 -3 4 -6 -2 -5 -13z"/>
<path d="M811 1754 c0 -11 3 -14 6 -6 3 7 2 16 -1 19 -3 4 -6 -2 -5 -13z"/>
<path d="M901 1734 c0 -11 3 -14 6 -6 3 7 2 16 -1 19 -3 4 -6 -2 -5 -13z"/>
<path d="M882 1720 c0 -14 2 -19 5 -12 2 6 2 18 0 25 -3 6 -5 1 -5 -13z"/>
<path d="M784 1606 c-8 -27 -8 -33 3 -29 7 3 13 18 13 34 0 37 -3 37 -16 -5z"/>
<path d="M2006 1585 c4 -8 8 -15 10 -15 2 0 4 7 4 15 0 8 -4 15 -10 15 -5 0
-7 -7 -4 -15z"/>
<path d="M801 1484 c0 -11 3 -14 6 -6 3 7 2 16 -1 19 -3 4 -6 -2 -5 -13z"/>
<path d="M1443 1469 c-2 -23 3 -25 10 -4 4 8 3 16 -1 19 -4 3 -9 -4 -9 -15z"/>
<path d="M2497 1478 c-16 -12 -15 -13 7 -13 15 0 22 5 19 13 -3 6 -6 12 -7 12
-1 0 -10 -6 -19 -12z"/>
<path d="M1459 1439 c-8 -17 -8 -20 2 -17 7 2 13 12 15 21 3 23 -3 21 -17 -4z"/>
<path d="M1504 1453 c4 -7 2 -13 -3 -13 -6 0 -11 -5 -11 -11 0 -8 5 -8 15 1
14 11 19 7 16 -12 0 -5 4 -8 9 -8 16 0 11 16 -12 36 -12 10 -18 13 -14 7z"/>
<path d="M1562 1428 c-14 -14 -16 -28 -3 -28 5 0 11 9 14 20 6 23 5 24 -11 8z"/>
<path d="M1782 1378 c-15 -15 -15 -28 0 -28 6 0 8 3 5 7 -4 3 -2 12 4 20 14
16 7 17 -9 1z"/>
<path d="M1803 1357 c-4 -6 0 -8 10 -4 10 3 17 2 17 -3 0 -6 5 -10 11 -10 5 0
8 4 5 9 -4 5 0 11 6 14 7 2 1 4 -15 4 -15 0 -30 -4 -34 -10z"/>
<path d="M1874 1362 c3 -5 0 -12 -6 -15 -7 -2 -10 -7 -7 -11 3 -4 12 0 18 8 9
11 9 16 0 22 -7 4 -9 3 -5 -4z"/>
<path d="M1940 1350 c-6 -11 -15 -18 -21 -15 -5 4 -6 12 -3 18 5 8 3 8 -6 0
-16 -15 -11 -22 20 -28 12 -2 20 -2 17 2 -4 3 -2 14 4 24 5 11 7 19 5 19 -3 0
-10 -9 -16 -20z"/>
<path d="M1960 1324 c0 -8 5 -12 10 -9 6 4 8 11 5 16 -9 14 -15 11 -15 -7z"/>
<path d="M2001 1331 c-7 -5 -11 -15 -9 -22 3 -10 8 -7 17 9 13 24 12 26 -8 13z"/>
<path d="M2030 1320 c-6 -11 -7 -20 -2 -20 6 0 12 9 15 20 3 11 3 20 1 20 -2
0 -8 -9 -14 -20z"/>
<path d="M2083 1324 c10 -12 15 -24 10 -26 -4 -3 -2 -3 5 -2 6 2 12 -1 12 -6
0 -16 17 -12 24 6 3 8 2 12 -4 9 -20 -12 -31 7 -13 22 17 13 17 13 -3 4 -15
-7 -25 -7 -35 2 -7 7 -5 2 4 -9z"/>
<path d="M2155 1294 c-9 -15 -12 -23 -6 -20 11 7 35 46 28 46 -3 0 -12 -12
-22 -26z"/>
<path d="M2240 1307 c0 -2 6 -10 14 -16 11 -9 16 -9 22 1 4 7 4 10 -1 6 -4 -4
-14 -3 -22 3 -7 6 -13 9 -13 6z"/>
<path d="M2187 1293 c-13 -12 -7 -25 8 -19 8 3 15 1 15 -4 0 -16 17 -12 24 6
3 9 2 12 -5 9 -5 -4 -16 -2 -23 4 -7 6 -16 8 -19 4z"/>
<path d="M2358 1265 c-3 -3 -16 -8 -28 -10 -12 -2 -25 -7 -29 -11 -3 -4 1 -5
10 -1 9 3 21 1 27 -5 7 -7 14 -4 21 11 11 20 11 27 -1 16z"/>
<path d="M2375 1239 c-4 -6 -5 -12 -2 -15 2 -3 7 2 10 11 7 17 1 20 -8 4z"/>
<path d="M2405 1239 c-4 -6 -5 -12 -2 -15 2 -3 7 2 10 11 7 17 1 20 -8 4z"/>
<path d="M2440 1228 c-13 -8 -12 -9 2 -5 9 3 19 1 21 -6 2 -7 7 -9 11 -6 13
12 -19 28 -34 17z"/>
<path d="M2551 1231 c-8 -5 -19 -7 -26 -5 -6 3 -18 -2 -25 -11 -8 -10 -9 -15
-1 -15 6 0 11 5 11 10 0 6 5 10 11 10 6 0 8 -8 5 -17 -5 -16 -4 -16 7 -3 7 8
19 21 27 28 16 14 11 16 -9 3z"/>
<path d="M2557 1204 c-4 -4 -7 -10 -7 -14 0 -9 47 -6 57 4 5 5 1 7 -8 3 -9 -3
-21 -1 -26 4 -5 5 -12 6 -16 3z"/>
<path d="M4685 810 c-3 -5 -1 -10 4 -10 6 0 11 5 11 10 0 6 -2 10 -4 10 -3 0
-8 -4 -11 -10z"/>
<path d="M4650 765 c-7 -8 -16 -12 -21 -9 -5 3 -9 0 -9 -5 0 -17 15 -13 35 9
10 11 16 20 13 20 -3 0 -11 -7 -18 -15z"/>
</g>
</svg>
